# xmcd
# Copyright (C) 1995-1998 Ti Kan
#
# Track frame offsets:
#       150
#       12268
#       26837
#       42515
#       61809
#       80966
#       117309
#       136908
#       149309
#       165828
#       181748
#       194691
#       226426
#
# Disc length: 4382 seconds
#
# Revision: 0
# Processed by: cddbd v1.5.2PL0 Copyright (c) Steve Scherf et al.
# Submitted via: CD-Transfer v1.0
#
DISCID=b1111c0d
DTITLE=Rucner, Ana - 
DYEAR=2012
DGENRE=
TTITLE0=Sabre Dance, The
TTITLE1=Libertango
TTITLE2=Destiny
TTITLE3=Moonlight
TTITLE4=Storm
TTITLE5=Bolero
TTITLE6=Toccata
TTITLE7=Romancer For Two
TTITLE8=Great G Minor, The Symphony
TTITLE9=Habanera
TTITLE10=Alla Turca
TTITLE11=Ode To Joy
TTITLE12=Data Track
EXTD=
EXTT0=
EXTT1=
EXTT2=
EXTT3=
EXTT4=
EXTT5=
EXTT6=
EXTT7=
EXTT8=
EXTT9=
EXTT10=
EXTT11=
EXTT12=
PLAYORDER=
